<svg xmlns="http://www.w3.org/2000/svg" viewBox="0 0 120 120" fill="none" stroke="currentColor" stroke-width="1.6" stroke-linecap="round" stroke-linejoin="round"><path d="M19.4 42.1L39.1 36.9M54.0 90.8L33.9 96.2M33.9 96.2L19.4 42.1" stroke-width="1.2" opacity=".6"/><path d="M80.9 36.9L100.6 42.1M100.6 42.1L86.1 96.2M86.1 96.2L66.0 90.8" stroke-width="1.2" opacity=".6"/><rect x="40" y="32" width="40" height="58" rx="3"/><path d="M68 32v13l3.5-3 3.5 3V32" stroke-width="1.2"/><path d="M47 52h26M47 58h26M47 64h26M47 70h16" stroke-width="1.1" opacity=".75"/><path d="M47 80h12" stroke-width="1.6"/><path d="M60 14v5M49 17l2.5 3M71 17l-2.5 3" stroke-width="1.1" opacity=".7"/></svg>